<?xml version="1.0" encoding="utf-8"?>
<!-- Generator: Adobe Illustrator 25.0.1, SVG Export Plug-In . SVG Version: 6.00 Build 0)  -->
<svg version="1.1" id="Layer_1" xmlns="http://www.w3.org/2000/svg" xmlns:xlink="http://www.w3.org/1999/xlink" x="0px" y="0px"
	 viewBox="0 0 235.28 141.73" style="enable-background:new 0 0 235.28 141.73;" xml:space="preserve">
<style type="text/css">
	.st0{fill:#597333;}
	.st1{fill-rule:evenodd;clip-rule:evenodd;fill:#597333;}
</style>
<g>
	<g>
		<g>
			<path class="st0" d="M9.91,118.4c0,1.84-1.43,3.04-3.76,3.04c-1.26,0-2.75-0.35-3.89-1.03l0.37-2.5h0.83v1.74
				c0.85,0.48,1.9,0.74,2.69,0.74c1.43,0,2.27-0.68,2.27-1.65c0-0.68-0.35-1.08-1.68-1.67l-1.47-0.66
				c-1.96-0.79-2.63-1.45-2.63-2.79c0-1.92,1.49-2.98,3.82-2.98c0.97,0,1.92,0.13,2.96,0.39v2.65h-0.8l-0.35-1.74
				c-0.64-0.19-1.32-0.31-1.98-0.31c-1.22,0-2.19,0.56-2.19,1.59c0,0.76,0.41,1.16,1.88,1.78l1.49,0.68
				C9.29,116.41,9.91,117.14,9.91,118.4z"/>
			<path class="st0" d="M21.56,120.52v0.72H17.1v-0.72l1.67-0.1l-0.93-2.46h-4.11l-0.91,2.44l1.67,0.12v0.72h-3.86v-0.72l1.1-0.27
				l3.56-9.2l1.47-0.37l3.68,9.57L21.56,120.52z M17.49,116.99l-1.7-4.55l-1.71,4.55H17.49z"/>
			<path class="st0" d="M32,111.6l-1.26,0.27v5.6c0,2.62-1.38,3.95-4.07,3.95c-2.71,0-4.13-1.34-4.13-3.95v-5.79l-1.4-0.08v-0.74
				h4.24v0.74l-1.26,0.27v5.6c0,1.92,0.95,2.87,2.73,2.87c1.72,0,2.67-0.95,2.67-2.87v-5.79l-1.43-0.08v-0.74H32V111.6z"/>
			<path class="st0" d="M43.08,115.87c0,3.24-2.09,5.37-5.31,5.37h-4.69v-0.72l1.28-0.27v-8.56l-1.47-0.08v-0.74h4.86
				C40.99,110.87,43.08,112.83,43.08,115.87z M41.44,115.94c0-2.48-1.49-4.11-3.76-4.11h-1.74v8.41h1.9
				C40,120.25,41.44,118.54,41.44,115.94z"/>
			<path class="st0" d="M48.76,120.52v0.72H44.5v-0.72l1.28-0.31v-8.54l-1.41-0.06v-0.74h4.26v0.74l-1.28,0.27v8.56L48.76,120.52z"
				/>
			<path class="st0" d="M58.04,117.57v2.87l1.41,0.08v0.72h-4.32v-0.72l1.28-0.31v-2.5l-3.49-5.87l-1.18-0.23v-0.74h4.55v0.74
				l-1.59,0.08l2.81,4.96l2.79-4.96l-1.49-0.08v-0.74h3.84v0.74l-1.22,0.25L58.04,117.57z"/>
			<path class="st0" d="M62.86,116.25c0-3.39,2.02-5.6,5.1-5.6c3.08,0,5.1,2.05,5.1,5.21c0,3.37-2.01,5.58-5.1,5.58
				C64.88,121.45,62.86,119.39,62.86,116.25z M71.43,115.94c0-2.56-1.4-4.2-3.51-4.2c-2.07,0-3.41,1.74-3.41,4.42
				c0,2.54,1.38,4.2,3.49,4.2C70.05,120.36,71.43,118.62,71.43,115.94z"/>
			<path class="st0" d="M84.54,116.95l-1.18,0.29v2.67l-0.79,0.95c-0.76,0.35-1.78,0.58-2.81,0.58c-3.18,0-5.25-2.05-5.25-5.19
				c0-3.39,2.19-5.6,5.54-5.6c1.1,0,2.31,0.17,3.06,0.43v2.73h-0.79l-0.33-1.84c-0.5-0.15-1.24-0.23-2-0.23
				c-2.32,0-3.84,1.7-3.84,4.34c0,2.6,1.57,4.28,3.99,4.28c0.6,0,1.18-0.08,1.74-0.19v-3.14l-1.45-0.08v-0.72h4.11V116.95z"/>
			<path class="st0" d="M95.84,120.52v0.72h-4.46v-0.72l1.67-0.1l-0.93-2.46h-4.11l-0.91,2.44l1.67,0.12v0.72h-3.86v-0.72l1.1-0.27
				l3.56-9.2l1.47-0.37l3.68,9.57L95.84,120.52z M91.77,116.99l-1.7-4.55l-1.71,4.55H91.77z"/>
			<path class="st0" d="M10.83,136.11l-0.8,1.05c-0.72,0.35-1.67,0.56-2.65,0.56c-3.06,0-5.08-2.05-5.08-5.19
				c0-3.39,2.13-5.6,5.37-5.6c0.97,0,2.05,0.15,2.73,0.39v3H9.61l-0.33-2.07c-0.43-0.15-1.05-0.23-1.67-0.23
				c-2.21,0-3.66,1.7-3.66,4.34c0,2.62,1.45,4.2,3.84,4.2c1.01,0,1.98-0.25,2.87-0.74L10.83,136.11z"/>
			<path class="st0" d="M11.95,132.53c0-3.39,2.02-5.6,5.1-5.6c3.08,0,5.1,2.05,5.1,5.21c0,3.37-2.01,5.58-5.1,5.58
				C13.96,137.72,11.95,135.66,11.95,132.53z M20.51,132.22c0-2.56-1.4-4.2-3.51-4.2c-2.07,0-3.41,1.74-3.41,4.42
				c0,2.54,1.38,4.2,3.49,4.2C19.14,136.63,20.51,134.89,20.51,132.22z"/>
			<path class="st0" d="M36.96,136.79v0.72h-4.34v-0.72l1.38-0.31v-7.42l-3.64,6.43H29.5l-3.62-6.3v7.5l1.37,0.1v0.72h-3.72v-0.72
				l1.28-0.31v-8.5l-1.37-0.1v-0.74h3.02l3.8,6.7l3.76-6.7h2.79v0.74l-1.26,0.23v8.6L36.96,136.79z"/>
			<path class="st0" d="M51.63,136.79v0.72h-4.34v-0.72l1.38-0.31v-7.42l-3.64,6.43h-0.85l-3.62-6.3v7.5l1.37,0.1v0.72H38.2v-0.72
				l1.28-0.31v-8.5l-1.37-0.1v-0.74h3.02l3.8,6.7l3.76-6.7h2.79v0.74l-1.26,0.23v8.6L51.63,136.79z"/>
			<path class="st0" d="M57.17,136.79v0.72h-4.26v-0.72l1.28-0.31v-8.54l-1.41-0.06v-0.74h4.26v0.74l-1.28,0.27v8.56L57.17,136.79z"
				/>
			<path class="st0" d="M66.62,129.7h-0.74l-0.29-1.59h-2.38v8.6l1.36,0.08v0.72h-4.2v-0.72l1.28-0.31v-8.37h-2.4l-0.29,1.59h-0.72
				v-2.56h8.39V129.7z"/>
			<path class="st0" d="M76.06,129.7h-0.74l-0.29-1.59h-2.38v8.6l1.36,0.08v0.72h-4.2v-0.72l1.28-0.31v-8.37h-2.4l-0.29,1.59h-0.72
				v-2.56h8.39V129.7z"/>
			<path class="st0" d="M85.59,134.83v2.67H77.3v-0.72l1.28-0.27v-8.58l-1.41-0.06v-0.74h8.02v2.54h-0.77l-0.29-1.57h-3.97v3.72
				h3.08l0.25-1.22h0.72v3.41h-0.72l-0.25-1.22h-3.08v3.72h4.38l0.27-1.69H85.59z"/>
			<path class="st0" d="M95.24,134.83v2.67h-8.29v-0.72l1.28-0.27v-8.58l-1.41-0.06v-0.74h8.02v2.54h-0.77l-0.29-1.57h-3.97v3.72
				h3.08l0.25-1.22h0.72v3.41h-0.72l-0.25-1.22h-3.08v3.72h4.38l0.27-1.69H95.24z"/>
		</g>
	</g>
	<g>
		<g>
			<path class="st0" d="M14.26,21.91v1.88c0,0.16-0.1,0.3-0.3,0.3h-3.45c-0.3-0.43-0.59-0.86-0.79-1.28l-1.81,1.18
				c-2.86-0.89-5.46-2.4-5.46-4.34c0-1.97,2.3-4.44,6.22-6.45l-0.1-1.05l2.4-0.99c0.13,3.29,0.2,7.43,0.3,10.49h2.7
				C14.2,21.65,14.26,21.78,14.26,21.91z M9.43,21.88c-0.26-2.83-0.36-4.28-0.59-6.91c-2.27,1.18-3.88,2.5-4.77,4.18
				C5.45,20.66,6.96,21.41,9.43,21.88z M7.02,8.72L5.08,6.94l1.91-1.97L8.8,6.71L7.02,8.72z M11.04,8.72L9.06,6.94l1.94-1.97
				l1.81,1.78L11.04,8.72z"/>
			<path class="st0" d="M13.96,24.08c-0.2,0-0.3-0.13-0.3-0.3v-1.88c0-0.13,0.07-0.26,0.3-0.26h4.11c0.23,0,0.3,0.13,0.3,0.26v1.88
				c0,0.16-0.1,0.3-0.3,0.3H13.96z"/>
			<path class="st0" d="M18.07,24.08c-0.2,0-0.3-0.13-0.3-0.3v-1.88c0-0.13,0.07-0.26,0.3-0.26h4.11c0.23,0,0.3,0.13,0.3,0.26v1.88
				c0,0.16-0.1,0.3-0.3,0.3H18.07z"/>
			<path class="st0" d="M22.18,24.08c-0.2,0-0.3-0.13-0.3-0.3v-1.88c0-0.13,0.07-0.26,0.3-0.26h4.11c0.23,0,0.3,0.13,0.3,0.26v1.88
				c0,0.16-0.1,0.3-0.3,0.3H22.18z"/>
			<path class="st0" d="M26.29,24.08c-0.2,0-0.3-0.13-0.3-0.3v-1.88c0-0.13,0.07-0.26,0.3-0.26h4.11c0.23,0,0.3,0.13,0.3,0.26v1.88
				c0,0.16-0.1,0.3-0.3,0.3H26.29z"/>
			<path class="st0" d="M30.41,24.08c-0.2,0-0.3-0.13-0.3-0.3v-1.88c0-0.13,0.07-0.26,0.3-0.26h4.11c0.23,0,0.3,0.13,0.3,0.26v1.88
				c0,0.16-0.1,0.3-0.3,0.3H30.41z"/>
			<path class="st0" d="M34.52,24.08c-0.2,0-0.3-0.13-0.3-0.3v-1.88c0-0.13,0.07-0.26,0.3-0.26h4.11c0.23,0,0.3,0.13,0.3,0.26v1.88
				c0,0.16-0.1,0.3-0.3,0.3H34.52z"/>
			<path class="st0" d="M38.63,24.08c-0.2,0-0.3-0.13-0.3-0.3v-1.88c0-0.13,0.07-0.26,0.3-0.26h4.11c0.23,0,0.3,0.13,0.3,0.26v1.88
				c0,0.16-0.1,0.3-0.3,0.3H38.63z"/>
			<path class="st0" d="M42.74,24.08c-0.2,0-0.3-0.13-0.3-0.3v-1.88c0-0.13,0.07-0.26,0.3-0.26h4.11c0.23,0,0.3,0.13,0.3,0.26v1.88
				c0,0.16-0.1,0.3-0.3,0.3H42.74z"/>
			<path class="st0" d="M46.85,24.08c-0.2,0-0.3-0.13-0.3-0.3v-1.88c0-0.13,0.07-0.26,0.3-0.26h4.11c0.23,0,0.3,0.13,0.3,0.26v1.88
				c0,0.16-0.1,0.3-0.3,0.3H46.85z"/>
			<path class="st0" d="M59.08,21.91v1.88c0,0.16-0.1,0.3-0.3,0.3c-0.92,0-1.91-0.2-2.6-0.43l-0.99-1.68
				c-0.76,1.41-2.17,2.11-4.24,2.11c-0.2,0-0.3-0.13-0.3-0.3v-1.88c0-0.13,0.07-0.26,0.3-0.26c0.86,0,1.78-0.13,2.57-0.46
				c0.26-1.61,0.36-2.96,0.63-5.13l2.53-0.53c-0.43,2.37-0.82,4.34-1.15,5.56c0.95,0.36,2.04,0.56,3.26,0.56
				C59.02,21.65,59.08,21.78,59.08,21.91z M55.3,13.82l-1.94-1.78l1.91-1.97l1.81,1.74L55.3,13.82z"/>
			<path class="st0" d="M75.92,21.91v1.88c0,0.16-0.1,0.3-0.3,0.3h-2.4c-1.38-0.26-2.57-0.99-3.85-2.24
				c-1.38,1.09-2.86,2.24-5.03,2.24h-5.56c-0.2,0-0.3-0.13-0.3-0.3v-1.88c0-0.13,0.07-0.26,0.3-0.26h4.93c3.42,0,5.1-1.35,7.14-2.11
				c-3.13-1.71-4.8-3.95-6.48-4.61l-3.35,0.62l-0.36-0.69c1.18-0.86,2.11-1.68,3.45-2.7c3.35,0.99,4.97,4.77,10.2,6.41l-0.72,2.14
				l-1.35-0.49c-0.49,0.1-0.92,0.3-1.38,0.56c0.89,0.56,1.88,0.86,3.03,0.86h1.74C75.86,21.65,75.92,21.78,75.92,21.91z
				 M66.12,26.91l1.81,1.74l-1.78,2.04l-1.94-1.78L66.12,26.91z"/>
			<path class="st0" d="M88.81,9.41c0.2,2.96,0.23,4.74,0.23,7.1c0,2.63-0.13,5.39-0.39,7.57h-8.09c-0.23-0.33-0.46-0.66-0.63-0.95
				c-1.12,0.56-2.43,0.95-4.31,0.95c-0.2,0-0.3-0.13-0.3-0.3v-1.88c0-0.13,0.07-0.26,0.3-0.26c1.48,0,2.73-0.2,3.75-0.56
				c-0.49-4.8-0.89-8.82-1.41-16.09l2.53-0.99c0.1,5.69,0.23,11.84,0.69,17.63h6.09c0.03-1.12,0-2.5-0.07-4.08
				c-0.2-5.36-0.59-8.62-1.41-12.7l1.84-0.86l1.81,4.57L88.81,9.41z"/>
			<path class="st0" d="M92.33,4.97l2.53-0.95c0.33,6.51,0.46,12.2,0.66,20.13l-1.94,0.2C93.18,17.66,92.95,11.94,92.33,4.97z"/>
			<path class="st0" d="M13.87,49.53v1.88c0,0.16-0.1,0.3-0.3,0.3h-3.45c-0.3-0.43-0.59-0.86-0.79-1.28L7.52,51.6
				c-2.86-0.89-5.46-2.4-5.46-4.34c0-1.97,2.3-4.44,6.22-6.45l-0.1-1.05l2.4-0.99c0.13,3.29,0.2,7.44,0.3,10.49h2.7
				C13.8,49.27,13.87,49.4,13.87,49.53z M9.03,49.5c-0.26-2.83-0.36-4.28-0.59-6.91c-2.27,1.18-3.88,2.5-4.77,4.18
				C5.05,48.28,6.57,49.04,9.03,49.5z M6.63,36.34l-1.94-1.78l1.91-1.97l1.81,1.74L6.63,36.34z M10.64,36.34l-1.97-1.78l1.94-1.97
				l1.81,1.78L10.64,36.34z"/>
			<path class="st0" d="M20.54,51.7h-6.97c-0.2,0-0.3-0.13-0.3-0.3v-1.88c0-0.13,0.07-0.26,0.3-0.26h5.72
				c-0.13-2.73-0.62-5-1.61-7.76l1.84-0.92l2.04,4.44l-0.63,0.86C20.97,47.92,20.81,49.83,20.54,51.7z M15.51,54.53l1.81,1.78
				l-1.78,2.01l-1.94-1.78L15.51,54.53z M19.52,54.53l1.81,1.78l-1.74,2.01l-1.97-1.78L19.52,54.53z"/>
			<path class="st0" d="M32.45,48.77c0,0.92-0.1,1.91-0.33,2.93c-1.58,0.23-2.76,0.33-4.28,0.33c-1.41,0-3.09-0.2-4.57-0.59
				l0.43-2.3c1.38,0.33,2.7,0.46,4.11,0.46c1.05,0,2.01-0.1,3.06-0.3c-0.03-0.16-0.03-0.3-0.03-0.43c-0.23-2.2-1.51-4.44-3.19-6.97
				l2.04-1.78C31.49,43.48,32.45,46.31,32.45,48.77z"/>
			<path class="st0" d="M46.75,49.53v1.88c0,0.16-0.1,0.3-0.3,0.3h-2.47c-0.59,2.27-2.04,4.41-4.31,6.25l-5.03-0.79l0.07-0.76
				c1.68-0.13,2.99-0.4,3.95-0.86c1.74-0.76,3.09-2.27,3.78-3.88c-4.34-0.3-7.11-1.88-7.11-4.18c0-2.43,2.01-6.32,4.67-6.32
				c2.73,0,4.34,3.29,4.34,7.86v0.23h2.11C46.69,49.27,46.75,49.4,46.75,49.53z M36.85,47.36c1.15,1.09,3.16,1.74,5.89,1.94
				c-0.4-3.19-1.38-5.89-3.06-5.89C38.4,43.41,37.15,45.29,36.85,47.36z"/>
			<path class="st0" d="M60.83,49.53v1.88c0,0.16-0.1,0.3-0.3,0.3h-1.61c-1.71,0-3.45-0.43-4.97-1.38
				c-1.78,1.05-3.85,1.38-5.56,1.38h-1.94c-0.2,0-0.3-0.13-0.3-0.3v-1.88c0-0.13,0.07-0.26,0.3-0.26c2.7,0,4.34-0.13,5.66-0.46
				c-1.28-1.38-2.5-3.36-3.32-5.33l-0.76,0.3l-0.43-0.43l1.02-2.24c2.17-0.76,3.65-1.09,5.3-1.09c2.73,0,4.9,1.12,4.9,2.89
				c0,1.45-1.09,4.01-3.06,5.99c1.25,0.33,2.43,0.36,4.77,0.36C60.76,49.27,60.83,49.4,60.83,49.53z M50.43,42.88
				c0.99,2.37,2.14,4.05,3.49,5.3c1.61-1.25,2.76-3.16,3.16-5.26c-1.15-0.39-2.2-0.56-3.35-0.56
				C52.74,42.36,51.65,42.52,50.43,42.88z"/>
			<path class="st0" d="M84.02,49.53v1.88c0,0.16-0.1,0.3-0.3,0.3c-1.32,0-2.3-0.16-3.03-0.43l-1.02-1.68
				c-0.89,1.48-2.24,2.11-3.78,2.11c-0.69,0-1.25-0.1-2.3-0.46l-0.92-1.48c-0.86,1.28-2.07,1.94-3.85,1.94
				c-0.95,0-1.71-0.16-2.5-0.46l-0.92-1.48c-0.79,1.35-1.97,1.94-4.8,1.94c-0.23,0-0.36-0.13-0.36-0.3v-1.88
				c0-0.13,0.1-0.26,0.36-0.26c1.38,0,2.24-0.07,2.86-0.2c0.46-1.35,0.79-2.67,1.18-4.41l2.34,0.53c-0.46,1.61-0.82,2.8-1.19,3.65
				c0.79,0.3,1.65,0.43,2.57,0.43c1.15,0,1.78-0.1,2.5-0.43c0.53-1.88,0.89-3.62,1.32-6.09l2.43,0.59
				c-0.43,2.27-0.89,4.15-1.45,5.49c0.79,0.26,1.58,0.43,2.14,0.43c0.99,0,1.78-0.1,2.63-0.46c0.56-2.04,1.05-4.24,1.55-6.97
				l2.43,0.59c-0.56,2.4-1.25,4.8-1.84,6.28c0.95,0.36,2.14,0.56,3.65,0.56C83.95,49.27,84.02,49.4,84.02,49.53z"/>
			<path class="st0" d="M89.21,37.03c0.23,2.96,0.26,4.74,0.26,7.11c0,2.63-0.16,5.39-0.43,7.57h-5.33c-0.2,0-0.3-0.13-0.3-0.3
				v-1.88c0-0.13,0.07-0.26,0.3-0.26h3.98c0.03-1.12,0-2.5-0.07-4.08c-0.2-5.36-0.59-8.62-1.45-12.7l1.84-0.86l1.84,4.57
				L89.21,37.03z"/>
			<path class="st0" d="M92.72,32.59l2.53-0.95c0.33,6.51,0.46,12.2,0.66,20.13l-1.94,0.2C93.58,45.29,93.35,39.56,92.72,32.59z"/>
			<path class="st0" d="M9.53,77.15v1.88c0,0.16-0.1,0.3-0.3,0.3H4c-0.23-5.3-0.49-11.94-1.25-19.11l2.53-0.95
				c0.33,6.05,0.49,11.94,0.56,17.63h3.39C9.46,76.89,9.53,77.02,9.53,77.15z"/>
			<path class="st0" d="M9.23,79.32c-0.2,0-0.3-0.13-0.3-0.3v-1.88c0-0.13,0.07-0.26,0.3-0.26h4.11c0.23,0,0.3,0.13,0.3,0.26v1.88
				c0,0.16-0.1,0.3-0.3,0.3H9.23z"/>
			<path class="st0" d="M13.34,79.32c-0.2,0-0.3-0.13-0.3-0.3v-1.88c0-0.13,0.07-0.26,0.3-0.26h4.11c0.23,0,0.3,0.13,0.3,0.26v1.88
				c0,0.16-0.1,0.3-0.3,0.3H13.34z"/>
			<path class="st0" d="M17.45,79.32c-0.2,0-0.3-0.13-0.3-0.3v-1.88c0-0.13,0.07-0.26,0.3-0.26h4.11c0.23,0,0.3,0.13,0.3,0.26v1.88
				c0,0.16-0.1,0.3-0.3,0.3H17.45z"/>
			<path class="st0" d="M21.56,79.32c-0.2,0-0.3-0.13-0.3-0.3v-1.88c0-0.13,0.07-0.26,0.3-0.26h4.11c0.23,0,0.3,0.13,0.3,0.26v1.88
				c0,0.16-0.1,0.3-0.3,0.3H21.56z"/>
			<path class="st0" d="M25.67,79.32c-0.2,0-0.3-0.13-0.3-0.3v-1.88c0-0.13,0.07-0.26,0.3-0.26h4.11c0.23,0,0.3,0.13,0.3,0.26v1.88
				c0,0.16-0.1,0.3-0.3,0.3H25.67z"/>
			<path class="st0" d="M29.78,79.32c-0.2,0-0.3-0.13-0.3-0.3v-1.88c0-0.13,0.07-0.26,0.3-0.26h4.11c0.23,0,0.3,0.13,0.3,0.26v1.88
				c0,0.16-0.1,0.3-0.3,0.3H29.78z"/>
			<path class="st0" d="M33.89,79.32c-0.2,0-0.3-0.13-0.3-0.3v-1.88c0-0.13,0.07-0.26,0.3-0.26H38c0.23,0,0.3,0.13,0.3,0.26v1.88
				c0,0.16-0.1,0.3-0.3,0.3H33.89z"/>
			<path class="st0" d="M38,79.32c-0.2,0-0.3-0.13-0.3-0.3v-1.88c0-0.13,0.07-0.26,0.3-0.26h4.11c0.23,0,0.3,0.13,0.3,0.26v1.88
				c0,0.16-0.1,0.3-0.3,0.3H38z"/>
			<path class="st0" d="M42.11,79.32c-0.2,0-0.3-0.13-0.3-0.3v-1.88c0-0.13,0.07-0.26,0.3-0.26h4.11c0.23,0,0.3,0.13,0.3,0.26v1.88
				c0,0.16-0.1,0.3-0.3,0.3H42.11z"/>
			<path class="st0" d="M58.59,76.26l-0.23,2.24c-4.11,0.46-8.29,0.82-12.14,0.82c-0.2,0-0.3-0.13-0.3-0.3v-1.88
				c0-0.13,0.07-0.26,0.3-0.26c1.15,0,2.3-0.03,3.45-0.07C48.53,75.77,48,74.52,48,73.2c0-3.13,2.76-5.46,5.86-5.46
				c1.25,0.79,1.88,1.51,3.06,2.4l-0.4,0.69c-1.35-0.53-2.17-0.76-3.03-0.76c-1.48,0-3.09,0.92-3.95,2.3
				c0.16,2.27,1.88,4.24,4.47,4.18l-0.03,0.03C55.43,76.49,56.95,76.36,58.59,76.26z M52.18,65.21l-1.94-1.78l1.91-1.97l1.81,1.74
				L52.18,65.21z"/>
			<path class="st0" d="M72.04,77.15v1.88c0,0.16-0.1,0.3-0.3,0.3h-2.47c-0.59,2.27-2.04,4.41-4.31,6.25l-5.03-0.79L60,84.02
				c1.68-0.13,2.99-0.4,3.95-0.86c1.74-0.76,3.09-2.27,3.78-3.88c-4.34-0.3-7.11-1.88-7.11-4.18c0-2.43,2.01-6.32,4.67-6.32
				c2.73,0,4.34,3.29,4.34,7.86v0.23h2.11C71.98,76.89,72.04,77.02,72.04,77.15z M62.14,74.98c1.15,1.09,3.16,1.74,5.89,1.94
				c-0.4-3.19-1.38-5.89-3.06-5.89C63.69,71.03,62.44,72.91,62.14,74.98z"/>
			<path class="st0" d="M81.51,77.15v1.88c0,0.16-0.1,0.3-0.3,0.3c-0.99,0-2.4-0.2-3.19-0.46l-1.12-1.64
				c-0.66,1.41-2.01,2.11-5.16,2.11c-0.2,0-0.3-0.13-0.3-0.3v-1.88c0-0.13,0.07-0.26,0.3-0.26c1.48,0,2.63-0.16,3.45-0.46
				c0.23-1.64,0.36-2.93,0.62-5.13l2.53-0.53c-0.39,2.37-0.79,4.34-1.12,5.56c0.92,0.36,2.11,0.56,3.98,0.56
				C81.45,76.89,81.51,77.02,81.51,77.15z M74.54,82.28l1.81,1.78l-1.78,2.01l-1.94-1.78L74.54,82.28z M78.55,82.28l1.81,1.78
				l-1.74,2.01l-1.97-1.78L78.55,82.28z"/>
			<path class="st0" d="M94.4,64.65c0.2,2.96,0.23,4.74,0.23,7.11c0,2.63-0.13,5.39-0.39,7.57h-8.09c-0.23-0.33-0.46-0.66-0.63-0.95
				c-1.12,0.56-2.43,0.95-4.31,0.95c-0.2,0-0.3-0.13-0.3-0.3v-1.88c0-0.13,0.07-0.26,0.3-0.26c1.48,0,2.73-0.2,3.75-0.56
				c-0.49-4.8-0.89-8.82-1.41-16.09l2.53-0.99c0.1,5.69,0.23,11.84,0.69,17.63h6.09c0.03-1.12,0-2.5-0.07-4.08
				c-0.2-5.36-0.59-8.62-1.42-12.7l1.84-0.86l1.81,4.57L94.4,64.65z"/>
		</g>
	</g>
	<g>
		<path class="st0" d="M129.19,58.04c-0.24-0.33-0.47-0.65-0.69-0.98c-2.31-3.38-4.46-6.93-5.96-10.75
			c-0.41-1.13-0.72-2.12-0.63-3.34c0.12-1.07,0.49-1.77,1.05-2.67c1.66-2.45,3.88-4.77,5.91-6.92c2.83-2.98,4.68-5.08,6.89-8.61
			c0.98-1.54,1.89-3.12,2.88-4.66c1.55-2.46,2.73-4.88,3.68-7.63c0.68-1.68,3.93-6.78,4.62-8.45c0.07-0.18-0.24,0.45-0.72,0.3
			c-1.57-0.57-2.87,0.71-4.4,1.41c-2.3,0.81-3.4,2.36-4.45,4.38c-1.4,2.69-2.45,5.82-3.46,8.68c-0.5,1.41-1.03,2.75-1.56,4.14
			c-1.62,3.56-3,5.72-5.31,8.81c-1.87,2.45-3.94,5.01-5.43,7.71c-0.63,1.17-0.99,2.07-1.06,3.4c0,1.45,0.38,2.55,0.93,3.86
			c1.74,3.73,4.11,7.35,6.5,10.7c0.18,0.25,0.36,0.5,0.55,0.75c2.08,2.77,4.19,5.28,6.6,7.77c1.34,1.41,2.5,2.51,3.97,3.75
			c-1.38-1.28-2.55-2.48-3.8-3.89C133.09,63.28,131.13,60.79,129.19,58.04"/>
		<path class="st1" d="M144.42,21.4c-7.6,2.58-0.45,12.55-15.32,22.68C139.61,34.78,137.08,22.89,144.42,21.4"/>
		<path class="st1" d="M131.73,45.15c6.97,5.12,9.04,9.87,15.88,10.86c6.35,0.92,12.62,13.44,16.63,1.7
			c2.13-6.25-2.51-10.18-5.81-16.71c-2.63-5.2-8.96-9.83-13.38-17.68c4.98,7.72,11.47,11.71,14.61,17.08
			c3.61,6.19,10.17,12.2,6.27,19.8c-5.99,11.67-13.31-1.91-18.51-2.99C140.22,55.73,138.6,50.87,131.73,45.15"/>
		<path class="st0" d="M141.9,13.35c-0.52,2.35,1.29,4.41,2.54,6.2c0.93,1.39,1.8,2.66,2.87,3.95c0.7,0.84,1.5,1.73,2.3,2.46
			c2.76,2.41,5.75,4.31,8.54,6.63c1.99,1.86,2.97,3.31,4.63,5.35c1.34,1.59,2.72,2.92,4.16,4.4c0.4,0.47,0.87,0.95,1.28,1.42
			c0.49,0.51,0.9,0.91,1.47,1.33c1.14,0.81,2.38,1.42,3.55,2.21c1.06,0.77,1.85,1.62,2.72,2.6c-0.86-1.08-1.52-1.88-2.6-2.76
			c-1.12-0.86-2.32-1.52-3.41-2.39c-0.44-0.37-0.85-0.81-1.22-1.25"/>
		<path class="st0" d="M168.74,43.5c-0.45-0.53-0.88-1.06-1.34-1.57c-1.35-1.54-2.62-2.89-3.85-4.56c-1.52-2.22-2.33-3.8-4.21-5.92
			c-2.33-2.58-5.14-4.94-7.12-7.76c-0.62-0.84-1.22-1.92-1.55-2.92c-0.47-1.37-1.22-3.05-2.22-4.12c-0.93-0.99-5.57-4.41-6.54-3.3"
			/>
		<path class="st0" d="M193.59,60.37c1.36-0.27,2.36-0.56,3.66-1.11c2.44-1.13,4.4-2.71,6.87-3.79c2.39-0.89,4.44-0.95,6.9-1.37
			c2.43-0.48,4.62-1.25,6.97-1.96c1.34-0.35,2.67-0.68,4.05-0.8c1.47-0.12,2.75-0.36,4.19-0.71c0.88-0.23,6.89-1.66,6.99-2.67
			c-1.27-3.1-5.19-2.9-7.94-2.57c-1.87,0.36-3.41,0.94-5.13,1.76c-1.16,0.56-2.29,1.15-3.42,1.77c-2.05,1.08-4.02,2.26-6.2,3.06
			c-2.47,0.83-4.48,1.12-6.92,2.29c-2.39,1.3-4.27,3.02-6.67,4.3c-1.07,0.53-2.14,0.9-3.3,1.17c-1.13,0.27-2.2,0.43-3.34,0.59
			c-1.4,0.14-2.82,0.21-4.19,0.37c-0.86,0.1-1.61,0.27-2.43,0.48c0.85-0.16,1.57-0.27,2.44-0.33c1.41-0.05,2.79-0.05,4.21-0.14
			C191.41,60.68,192.52,60.56,193.59,60.37"/>
		<path class="st1" d="M185.8,68.84c9.51-3.19,13.07-6.8,21.68-10.13c9.85-3.8,8.61-6.82,17.52-5.2c-4.33-0.25-4.03-0.8-7.99,1.84
			C207.47,61.71,197.1,66.53,185.8,68.84"/>
		<path class="st1" d="M176.2,46.86c4.72-14.34,21.48-3.28,14.11,9.54c-2.84,4.93-5.73-2.99-7.91,3.93
			c1.37-6.88,4.66-0.84,6.71-4.02C194.7,47.59,182.66,32.67,176.2,46.86"/>
		<path class="st0" d="M151.45,89.2c-0.36,1.74-0.77,3.47-1.21,5.19c-0.6,2.31-1.28,4.55-1.93,6.84c-0.36,1.46-0.42,2.09-0.39,3.58
			c-0.02,2.55-0.01,5.07-0.05,7.61c-0.17,4.68-0.41,9.49-0.13,14.14c0.22,1.82,0.48,3.15,1.26,4.81c0.08,0.14,0.16,0.29,0.25,0.43
			c1.07,1.64,2.27,2.44,4.01,3.25c1.98,0.77,12,2.65,12.7,0.93c-1.26-3.48-7.23-5.26-10.33-6.4c-0.77-0.3-1.59-0.63-2.26-1.14
			c-0.08-0.04-0.29-0.24-0.35-0.31c-0.59-0.65-0.88-1.48-1.12-2.32c-1.22-4.08-1.48-9.13-1.85-13.41c-0.13-2.59-0.31-5.1-0.66-7.67
			c-0.11-1.38-0.15-1.84,0.12-3.23c0.41-2.28,1.05-4.66,1.55-6.93c0.34-1.69,0.69-3.35,0.99-5.04c0.26-1.49,0.49-2.96,0.67-4.46
			c0.29-2.29,0.57-4.86,0.39-7.17c-0.09-1.11-0.2-1.65-0.86-2.51c0.59,0.9,0.67,1.43,0.72,2.53c0.02,2.32-0.34,4.81-0.71,7.1
			C152.02,86.43,151.75,87.82,151.45,89.2"/>
		<path class="st1" d="M154.51,76.74c7.15,1.08,17.36-0.01,23.75-2.91c3.69-1.68,3.51-5.65,3.99-9.17
			c-0.03,1.97,0.09,5.87-0.78,7.71C177.87,80.05,160.93,78.53,154.51,76.74"/>
		<path class="st1" d="M149.24,137.44c-7.84-0.34-2.65-2.56-5.78-12.1c-5.53-16.89-2.18-16.6-4.26-31.84
			c-1.39-10.15-1.34-15.09,0.89-24.8c-1.63,9.72-1.4,14.58,0.58,24.54c2.74,13.86-0.38,16.29,3.69,31.82
			C146.99,135.07,141.63,136.65,149.24,137.44"/>
		<path class="st0" d="M192.78,45.23"/>
		<path class="st0" d="M137.39,80.2"/>
		<path class="st0" d="M153.59,84.42"/>
	</g>
	<g>
		<rect x="2.37" y="97.36" class="st0" width="93.55" height="1.24"/>
	</g>
</g>
</svg>
