<svg width="32" height="32" viewBox="0 0 32 32" fill="none" xmlns="http://www.w3.org/2000/svg">
<circle cx="16" cy="16" r="16" fill="#B07B57"/>
<path fill-rule="evenodd" clip-rule="evenodd" d="M22.6634 8C23.4016 8 24 8.59802 24 9.33663V22.6634C24 23.4016 23.402 24 22.6634 24H9.33663C8.59843 24 8 23.402 8 22.6634V9.33663C8 8.59843 8.59802 8 9.33663 8H22.6634ZM18.815 14C17.6878 14 16.9139 14.4945 16.5643 15.0722L16.5 15.1887V14.1H14.3333V21.7667H16.6667V18.053C16.6667 16.8083 17.125 16.0167 18.2267 16.0167C18.9792 16.0167 19.2991 16.6757 19.3307 17.8522L19.3333 18.053V21.7667H21.6667V17.5323C21.6667 15.246 21.1197 14 18.815 14ZM12.6667 14H10.3333V21.6667H12.6667V14ZM11.5 10C10.6717 10 10 10.6717 10 11.5C10 12.3283 10.6717 13 11.5 13C12.3283 13 13 12.3283 13 11.5C13 10.6717 12.3283 10 11.5 10Z" fill="white"/>
</svg>
