<svg width="32" height="32" viewBox="0 0 32 32" fill="none" xmlns="http://www.w3.org/2000/svg">
<circle cx="16" cy="16" r="16" fill="#B07B57"/>
<mask id="mask0_211_2778" style="mask-type:alpha" maskUnits="userSpaceOnUse" x="8" y="9" width="16" height="15">
<path d="M24 11.0852C23.4121 11.3567 22.7791 11.5403 22.1152 11.6223C22.7932 11.2005 23.3135 10.5315 23.5586 9.73462C22.9238 10.1253 22.2222 10.4094 21.4728 10.5618C20.8755 9.89869 20.0218 9.48462 19.0771 9.48462C17.2655 9.48462 15.7957 11.013 15.7957 12.8977C15.7957 13.1653 15.8239 13.4251 15.8803 13.6751C13.1521 13.5325 10.7338 12.1751 9.11381 10.1077C8.83113 10.6135 8.6696 11.2005 8.6696 11.8255C8.6696 13.0091 9.24905 14.054 10.13 14.6663C9.59277 14.6497 9.08564 14.4944 8.64237 14.2405V14.2825C8.64237 15.9368 9.77402 17.3167 11.2766 17.6292C11.0015 17.7093 10.7113 17.7494 10.4117 17.7494C10.2004 17.7494 9.99378 17.7289 9.79374 17.6888C10.2117 19.0443 11.4231 20.0316 12.86 20.058C11.7368 20.974 10.3206 21.5199 8.78324 21.5199C8.5184 21.5199 8.25638 21.5043 8 21.473C9.45284 22.4399 11.179 23.0053 13.0319 23.0053C19.0705 23.0053 22.3715 17.805 22.3715 13.2942C22.3715 13.1458 22.3687 12.9974 22.3631 12.8518C23.0045 12.3704 23.5614 11.7698 24 11.0852Z" fill="white"/>
</mask>
<g mask="url(#mask0_211_2778)">
<rect width="16" height="16.0245" transform="translate(8 7.98242)" fill="white"/>
<rect x="8" y="7.98242" width="16" height="16.0245" fill="white"/>
</g>
</svg>
